<?xml version="1.0" encoding="utf-8"?>
<!-- Generator: Adobe Illustrator 26.3.1, SVG Export Plug-In . SVG Version: 6.00 Build 0)  -->
<svg version="1.1" id="Layer_1" xmlns="http://www.w3.org/2000/svg" xmlns:xlink="http://www.w3.org/1999/xlink" x="0px" y="0px"
	 viewBox="0 0 424 500" style="enable-background:new 0 0 424 500;" xml:space="preserve">
<style type="text/css">
	.st0{fill:url(#SVGID_1_);stroke:#DCDDDF;stroke-width:0.8218;}
	.st1{fill:url(#SVGID_00000065070679458873638000000009615989074813031339_);}
	.st2{fill:#FFFFFF;}
	.st3{fill:#231F20;}
	.st4{fill:url(#SVGID_00000099621418343582535830000009705199471110910083_);}
</style>
<g>
	<linearGradient id="SVGID_1_" gradientUnits="userSpaceOnUse" x1="39.9206" y1="24.1962" x2="365.0126" y2="349.2881">
		<stop  offset="0" style="stop-color:#ECEBEC"/>
		<stop  offset="0.1035" style="stop-color:#E2E2E4"/>
		<stop  offset="0.2303" style="stop-color:#D0D1D5"/>
		<stop  offset="0.497" style="stop-color:#E5E3E1"/>
		<stop  offset="0.5154" style="stop-color:#D6D5D5"/>
		<stop  offset="0.5507" style="stop-color:#AFB1B5"/>
		<stop  offset="0.5697" style="stop-color:#989BA2"/>
		<stop  offset="0.5987" style="stop-color:#9B9DA4"/>
		<stop  offset="0.6161" style="stop-color:#A3A5AA"/>
		<stop  offset="0.6242" style="stop-color:#AAACB0"/>
		<stop  offset="0.6546" style="stop-color:#A0A3A8"/>
		<stop  offset="0.6727" style="stop-color:#989BA2"/>
		<stop  offset="0.7022" style="stop-color:#9B9DA4"/>
		<stop  offset="0.7198" style="stop-color:#A3A6AB"/>
		<stop  offset="0.7344" style="stop-color:#B1B4B7"/>
		<stop  offset="0.7455" style="stop-color:#C2C4C5"/>
		<stop  offset="0.7572" style="stop-color:#B3B5B6"/>
		<stop  offset="0.7796" style="stop-color:#8C8E91"/>
		<stop  offset="0.8" style="stop-color:#646669"/>
		<stop  offset="0.8265" style="stop-color:#6C6F73"/>
		<stop  offset="0.8667" style="stop-color:#80848A"/>
		<stop  offset="0.8964" style="stop-color:#7D8187"/>
		<stop  offset="0.9188" style="stop-color:#74787D"/>
		<stop  offset="0.9388" style="stop-color:#65686D"/>
		<stop  offset="0.9573" style="stop-color:#505356"/>
		<stop  offset="0.9749" style="stop-color:#353639"/>
		<stop  offset="0.9916" style="stop-color:#141415"/>
		<stop  offset="1" style="stop-color:#000000"/>
	</linearGradient>
	<path class="st0" d="M397.8,57c0,0,36.4,301.2-195.3,438C-29.2,358.2,7.1,57,7.1,57S195.2-60,397.8,57z"/>
	
		<linearGradient id="SVGID_00000034772742519491807250000001331026376971759780_" gradientUnits="userSpaceOnUse" x1="44.7995" y1="30.9696" x2="360.135" y2="346.3051">
		<stop  offset="0" style="stop-color:#FFFFFF"/>
		<stop  offset="7.366121e-02" style="stop-color:#F5F6F6"/>
		<stop  offset="0.1939" style="stop-color:#DCDDDF"/>
		<stop  offset="0.3455" style="stop-color:#ECEBEC"/>
		<stop  offset="0.3752" style="stop-color:#DDDDDF"/>
		<stop  offset="0.432" style="stop-color:#B6B8BB"/>
		<stop  offset="0.4485" style="stop-color:#AAACB0"/>
		<stop  offset="0.4831" style="stop-color:#B9BBBE"/>
		<stop  offset="0.5497" style="stop-color:#E1E2E3"/>
		<stop  offset="0.5939" style="stop-color:#FFFFFF"/>
		<stop  offset="0.6084" style="stop-color:#F5F5F6"/>
		<stop  offset="0.6328" style="stop-color:#DBDCDC"/>
		<stop  offset="0.664" style="stop-color:#B0B2B3"/>
		<stop  offset="0.697" style="stop-color:#7C7E81"/>
		<stop  offset="0.7229" style="stop-color:#86888A"/>
		<stop  offset="0.7665" style="stop-color:#A0A2A4"/>
		<stop  offset="0.8121" style="stop-color:#C2C4C5"/>
		<stop  offset="0.8674" style="stop-color:#9B9D9E"/>
		<stop  offset="0.9907" style="stop-color:#383A3C"/>
		<stop  offset="1" style="stop-color:#303234"/>
	</linearGradient>
	<path style="fill:url(#SVGID_00000034772742519491807250000001331026376971759780_);" d="M392,62.8c0,0,35.3,292.2-189.5,424.9
		C-22.3,355,13,62.8,13,62.8S195.4-50.7,392,62.8z"/>
	<path class="st2" d="M369.2,85.2c0,0,31,257.1-166.7,373.9C4.7,342.4,35.7,85.2,35.7,85.2S196.2-14.6,369.2,85.2z"/>
	<path class="st3" d="M364.2,90.1c0,0,30.1,249.4-161.7,362.7C10.6,339.5,40.7,90.1,40.7,90.1S196.4-6.8,364.2,90.1z"/>
	<g>
		<g>
			
				<linearGradient id="SVGID_00000144323907264584472200000000592383587762656940_" gradientUnits="userSpaceOnUse" x1="84.7592" y1="226.399" x2="324.4331" y2="226.399">
				<stop  offset="0" style="stop-color:#F9F5BB"/>
				<stop  offset="1.745662e-02" style="stop-color:#F6F0B5"/>
				<stop  offset="0.1602" style="stop-color:#E2CD84"/>
				<stop  offset="0.2955" style="stop-color:#D3B15E"/>
				<stop  offset="0.4199" style="stop-color:#C79D42"/>
				<stop  offset="0.5294" style="stop-color:#C09032"/>
				<stop  offset="0.6124" style="stop-color:#BE8C2C"/>
				<stop  offset="0.7393" style="stop-color:#C08F2E"/>
				<stop  offset="0.8207" style="stop-color:#C69733"/>
				<stop  offset="0.8893" style="stop-color:#D1A63C"/>
				<stop  offset="0.9504" style="stop-color:#DFBB48"/>
				<stop  offset="1" style="stop-color:#F0D256"/>
			</linearGradient>
			<path style="fill:url(#SVGID_00000144323907264584472200000000592383587762656940_);" d="M324.4,104v111.5
				c0,14.2-1.2,27.2-3.5,39c-2.3,11.8-5.8,22.4-10.5,32c-4.7,9.5-10.6,18.1-17.7,25.6c-7.1,7.5-15.5,14.1-25.2,19.8
				c-19.3,11.4-40.3,17.1-63.2,17.1c-21.4,0-41.7-5.3-61.1-15.8c-19.3-10.5-33.9-25.1-43.9-43.6c-9.8-18.4-14.7-44.6-14.7-78.5V104
				h106.7v113.5c0,9.7,0.9,16.4,2.7,20.2c1.9,3.6,5.2,5.4,9.9,5.4c2.8,0,5.1-0.6,6.9-1.9c1.7-1.3,3.1-3.3,4.1-6
				c1-2.7,1.7-6.3,2.1-10.6c0.4-4.3,0.6-9.5,0.6-15.6V104H324.4z"/>
		</g>
	</g>
	<g>
		<path class="st3" d="M414.7,290.5c-2-2.1-4.6-3.8-7.8-5.3c-3.1-1.4-6.4-2.1-9.9-2.1c-0.3,0-0.5,0-0.7,0c-1.3,0-3.2,0-5.7,0.1
			c-2.6,0-5.6,0.1-9.1,0.1c-2.2,0-4.4,0.1-6.8,0.1c-0.1-0.7-0.2-1.3-0.4-2c-1.5-5.6-6.4-9.3-12.5-9.3h-3.7c-1.7,0-3.4,0.3-5.2,0.8
			c-1.8-4.8-6.4-8-12-8h-13.4c-3.6,0-6.7,0.9-9.2,2.6c-4.4,3.1-6.4,8-5.2,12.9c0.2,0.9,0.6,1.8,1,2.6c-1.2,0-3,0-5.1,0.1
			c-2.6,0-5.6,0.1-9.1,0.1c-2.2,0-4.4,0.1-6.8,0.1c-0.1-0.7-0.2-1.4-0.4-2.1c-1.5-5.6-6.4-9.2-12.5-9.2h-3.7c-3,0-6.1,0.9-9.2,2.6
			c-2.7,1.5-5,3.5-6.9,5.8l-2.4,3.3c-3.3,0-6.4,0.1-9.3,0.1c-4.1,0-7.3,0.1-9.5,0.1c-4.1,0-8.1,1.2-11.7,3.7c-3,2-5.4,4.4-7.1,6.9
			c-3.2,4.8-3.2,9.1-2.6,12c-1.3,0.3-2.6,0.7-3.9,1.2c-2.1-1.3-4.6-2-7.3-2h-3.7c-3,0-6,0.8-9,2.4c-1.7,0.9-3.3,2-4.7,3.3
			c-1.6-1.6-3.6-3-5.9-4c-2.8-1.2-6-1.9-9.4-1.9c-5.1,0-10.1,0.9-14.9,2.7c1.8-2.5,3.2-5.1,4.2-7.8c2.4-6.3,2.2-12.7-0.5-18.4
			c-2.5-5.4-7.3-9.7-14.3-13c-6-2.8-13.8-4.2-23.7-4.4c-0.8,0-1.6,0-2.3,0c-6.3,0-12.2,0.7-17.7,2.1c-6.1,1.5-11.6,3.6-16.2,6.2
			c-4.9,2.7-8.9,5.8-12.1,9.2c-3.6,3.9-6,8-7.2,12.2c-1.4,5.3-0.8,10.5,1.8,15.1c1.2,2,2.7,3.8,4.6,5.3c-0.2,0.3-0.4,0.5-0.5,0.8
			c-1.5,2.1-2.7,3.8-3.5,5.1c-2.6,3.9-5.1,7.6-7.6,11.1c-2.3,3.2-4.5,6-6.8,8.3c-1.9,2-3.9,3.6-5.8,4.7c-1.2,0.7-2.3,1-3.6,1
			c-0.6,0-1.1-0.1-1.5-0.1c-0.8-0.2-1.4-0.4-1.9-0.6c-0.9-0.3-1.6-0.6-2.2-0.9c-1.6-0.7-2.9-1.1-4.1-1.4l-0.7-0.1
			c-0.5-0.1-1-0.1-1.5-0.1c-6.1,0-11,4.6-11.7,10.8c-0.4,3.8,0.8,7.5,3.4,10.5c2.2,2.6,5,4.8,8.3,6.3c3.3,1.6,7.1,2.4,11.1,2.4
			c6.3,0,12.2-1,17.5-2.9c5.3-1.9,10.3-4.7,15-8.5c4.3-3.4,8.6-7.7,12.7-12.7c0.1,0.2,0.1,0.5,0.2,0.7c1.1,3.8,2.5,7.4,4.2,10.5
			c1.9,3.5,4.2,6.5,6.9,8.8c3.4,3,7.6,4.6,12.1,4.6c0.5,0,1,0,1.5-0.1l0.1,0c3.5-0.3,7.1-1.6,10.8-3.8c1.4-0.8,2.8-1.8,4.2-2.8
			c3.9,3.9,9.5,5.8,16.4,5.8c4.2,0,8.5-1,13.1-3.1c2.3,2,5.3,3.1,8.6,3.1h3.7c3.1,0,6.2-0.9,9.2-2.6c2.7-1.5,5-3.4,6.8-5.8l0.2-0.2
			c1.5,2.8,3.8,5,6.7,6.6c3.8,2,8.4,2.5,13.3,1.6c2.9-0.6,5.9-1.8,9-3.6c0.9,0.8,1.8,1.5,2.9,2.1c3.6,2,8.1,2.6,13.2,1.6
			c3.3-0.6,6.5-1.9,9.9-4.1c2.5-1.6,5.2-3.5,7.8-5.6c2.6-2.1,5.2-4.4,7.7-6.9c2.4-2.3,4.6-4.6,6.6-6.7c2.1-2.2,3.9-4.3,5.4-6.1
			c0.6-0.8,1.2-1.5,1.7-2.1c-1.7,3-2.9,6.1-3.6,9c-0.9,3.8-1,7.4-0.2,10.6c1.1,4.5,3.8,8.1,7.8,10.3c3.6,2,8.1,2.6,13,1.6
			c3.1-0.6,6.2-1.8,9.5-3.8c0.9,0.8,1.8,1.5,2.9,2.1c3.6,2,8.1,2.6,13.2,1.6c3.2-0.6,6.5-1.9,9.9-4.1c2.6-1.6,5.2-3.5,7.8-5.6
			c2.6-2.1,5.2-4.4,7.7-6.9c2.4-2.3,4.6-4.6,6.6-6.7c2-2.2,3.9-4.2,5.4-6.1c1.6-2,2.8-3.4,3.5-4.5l0.5-0.8c1.3-2.2,2.1-4.4,2.4-6.6
			c0.9-5.7-1.8-9.4-3.4-11c-1-1-2.2-1.8-3.5-2.4l1.2-1.7l12.5-0.5c6-0.3,11.5-0.5,16.5-0.8c5-0.3,9.4-0.5,13.1-0.6
			c4.4-0.2,6.2-0.2,7-0.2c10.6,0,13.4-7.1,14-9.3C419.8,299.1,418.4,294.3,414.7,290.5z"/>
		<g>
			<g>
				<path class="st2" d="M310.2,286.2c-2.6,0-5.7,0.1-9.2,0.1c-3.5,0-7.4,0.1-11.6,0.1c-4.2,0-8.4,0.1-12.6,0.1
					c1.4-2,2.7-3.6,3.6-4.9c1-1.3,1.6-2.1,1.7-2.2c0.9-1.2,1.3-2.2,1.1-3c-0.2-0.8-0.9-1.2-2.1-1.2h-3.7c-1.2,0-2.5,0.4-4,1.2
					c-1.4,0.8-2.6,1.8-3.6,3l-5.5,7.4c-5.4,0.1-10.3,0.1-14.7,0.2c-4.3,0-7.5,0.1-9.6,0.1c-2,0-3.9,0.6-5.7,1.9
					c-1.8,1.2-3.2,2.6-4.1,4c-0.9,1.4-1.3,2.7-1,3.9c0.3,1.2,1.5,1.7,3.7,1.7c1.4,0,4.2-0.1,8.5-0.3c4.3-0.2,9.3-0.4,15.1-0.6
					c-2.7,3.8-5.6,7.9-8.5,12.1c-3,4.2-5.8,8.2-8.4,11.9c-0.2,0.3-0.5,0.7-0.7,1c-1.6,2-3.6,4.1-5.8,6.5c-2.5,2.6-4.9,4.9-7.3,7.1
					c-2.4,2.2-4.6,4-6.6,5.4c-2,1.4-3.4,1.9-4.3,1.7c-0.3-0.1-0.6-0.3-0.8-0.6c-0.2-0.3-0.1-1,0.2-1.8c0.3-0.9,0.9-2.1,1.8-3.6
					c0.9-1.5,2.3-3.4,4.3-5.7c3.8-4.8,6.5-8.7,8.1-11.7c1.6-3,2.3-5.4,2.2-7c-0.1-1.7-0.9-2.7-2.3-3.3c-1.4-0.5-3.3-0.6-5.5-0.3
					c-3,0.4-6.1,1.6-9.3,3.5c-3.2,1.9-6.4,4.2-9.6,7l4.6-6.5c0.9-1.2,1.3-2.2,1.1-3c-0.2-0.8-0.9-1.2-2.1-1.2H204
					c-1.2,0-2.5,0.4-4,1.1c-1.4,0.8-2.6,1.8-3.6,3.1l-6.1,8.6c-0.1,0.1-0.2,0.2-0.3,0.3c-2.9,3.1-6.1,6.1-9.7,9
					c-3.6,2.9-7.1,5.5-10.6,7.7c-3.5,2.2-6.7,3.9-9.7,5.1c-3,1.2-5.3,1.5-7,1c-1.7-0.4-2.8-1.4-3.2-3c-0.4-1.6-0.4-3.4,0.1-5.6
					c3.5-0.3,6.9-0.9,10.2-1.8c3.3-0.9,6.4-2.1,9.2-3.4c2.8-1.4,5.3-2.9,7.5-4.6c2.2-1.7,3.9-3.5,5.2-5.4c1.3-1.8,2-3.4,2.2-5
					c0.2-1.5-0.1-2.8-0.8-3.9c-0.7-1.1-1.8-1.9-3.3-2.6c-1.5-0.6-3.2-1-5.1-1c-4.9,0-9.6,1.1-14,3.3c-4.4,2.2-8.2,5-11.6,8.4
					c-1.8,1.8-3.3,3.7-4.8,5.6c-0.9,1-1.7,2-2.7,3.1c-2.3,2.6-4.7,5-7.1,7.3c-2.4,2.3-4.7,4.2-6.8,5.7c-2.2,1.5-3.9,2.2-5.2,2
					c-1.1-0.1-2.2-1.3-3.3-3.5c-1.1-2.3-2-5-2.8-8.2c-0.8-3.2-1.3-6.7-1.7-10.3c-0.3-3.6-0.3-6.9,0.3-9.9c6.6-0.7,12.7-2.2,18.1-4.6
					c5.4-2.4,9.9-5.2,13.5-8.4c3.5-3.2,6-6.6,7.3-10.2c1.4-3.6,1.3-6.9-0.1-10c-1.4-3.1-4.5-5.7-9.1-7.8c-4.6-2.1-11.1-3.3-19.4-3.4
					c-6.2-0.2-11.9,0.4-17.2,1.7c-5.2,1.3-9.8,3-13.7,5.2c-3.9,2.1-7,4.5-9.4,7.1c-2.4,2.6-4,5.2-4.7,7.7c-0.7,2.5-0.4,4.8,0.8,6.9
					c1.2,2.1,3.5,3.6,6.9,4.7c3.3-4.9,6.1-9.2,8.4-12.8c2.3-3.6,4.7-6.5,7.3-8.8c2.6-2.3,5.7-4,9.3-5.1c3.6-1.1,8.4-1.7,14.5-1.7
					c3.4,0,6.1,0.9,8,2.6c1.9,1.7,3.1,3.8,3.6,6.4c0.5,2.6,0.3,5.3-0.7,8.3c-1,3-2.7,5.7-5.2,8.3c-2.5,2.6-5.7,4.7-9.6,6.4
					c-4,1.7-8.7,2.6-14.1,2.6h-5.7c1.9-2.7,3.9-5.6,5.9-8.5c2.1-3,4-5.7,5.8-8.2c1.8-2.5,3.3-4.6,4.5-6.4c1.2-1.7,2-2.7,2.2-3
					c0.9-1.2,1.3-2.3,1-3.3c-0.3-1-0.9-1.3-1.9-1.1c-0.9,0.2-1.9,0.3-2.7,0.5c-0.9,0.2-2.1,0.5-3.5,0.9c-2.6,0.7-4.5,1.6-5.9,2.7
					c-1.4,1.1-2.5,2.3-3.4,3.4c-0.3,0.4-1.1,1.4-2.2,3c-1.1,1.6-2.4,3.4-4,5.6c-1.6,2.2-3.3,4.6-5.1,7.1c-1.8,2.6-3.6,5.1-5.3,7.5
					c-1.7,2.4-3.3,4.6-4.7,6.6c-1.5,2-2.5,3.6-3.2,4.7c-2.6,4-5.3,7.8-7.9,11.5c-2.6,3.7-5.2,6.8-7.9,9.6c-2.6,2.7-5.4,4.9-8.2,6.5
					c-2.8,1.6-5.8,2.4-8.9,2.4c-1.5,0-2.8-0.1-4-0.4c-1.2-0.3-2.3-0.6-3.3-1c-1-0.4-1.9-0.7-2.6-1.1c-0.8-0.3-1.4-0.6-1.8-0.6
					c-0.7-0.1-1.1,0.3-1.2,1.1c-0.1,0.9,0.2,1.7,0.9,2.4c1.2,1.4,2.7,2.6,4.7,3.5c1.9,0.9,4.1,1.3,6.6,1.3c5.1,0,9.7-0.7,13.9-2.2
					c4.2-1.5,8.2-3.7,12-6.8c3.8-3,7.6-6.8,11.4-11.4c3.7-4.6,7.7-10,11.9-16.3l3.2-4.7h0.9c-0.3,2-0.5,4.5-0.4,7.5
					c0.1,2.9,0.4,6,0.9,9.1c0.5,3.2,1.2,6.3,2.1,9.4c0.9,3.1,2,5.9,3.3,8.3c1.3,2.4,2.8,4.4,4.5,5.8c1.7,1.4,3.6,2.1,5.7,1.9
					c1.9-0.2,4-0.9,6.3-2.3c2.3-1.4,4.6-3,7-5c2.3-2,4.7-4.1,7-6.4c0.2-0.2,0.3-0.3,0.4-0.5c-0.1,0.6-0.2,1.2-0.2,1.7
					c-0.2,3.4,0.6,6.1,2.5,8.4c1.9,2.2,5,3.3,9.4,3.3c3.1,0,6.5-1,10.5-2.9c3.9-2,7.9-4.4,12-7.3c1.9-1.3,3.7-2.7,5.5-4.2l-7.1,10.1
					c-0.9,1.2-1.3,2.2-1.2,3.1c0.2,0.9,0.9,1.3,2,1.3h3.7c1.2,0,2.5-0.4,4-1.2c1.4-0.8,2.7-1.8,3.7-3.1l3.3-4.7
					c0.2-0.1,0.3-0.3,0.5-0.6c2-2.9,4.6-6,7.7-9.3c3.1-3.3,6.2-6.3,9.3-8.9c3.1-2.7,5.8-4.8,8.2-6.4c2.4-1.6,4-2.2,4.8-1.8
					c0.9,0.4,0.6,1.7-1.1,3.8c-1.7,2.1-4.3,5.4-7.9,9.9c-3,3.8-5,7.2-6.2,10.2c-1.2,3-1.6,5.4-1.3,7.3c0.3,1.9,1.3,3.3,2.9,4.1
					c1.6,0.9,3.7,1,6.3,0.5c1.8-0.3,3.8-1.2,6.1-2.6c2.3-1.4,4.5-3,6.8-4.9c1.5-1.2,3-2.5,4.5-3.9c-0.2,0.6-0.4,1.2-0.5,1.8
					c-0.5,2.2-0.6,4.1-0.2,5.7c0.4,1.6,1.3,2.8,2.6,3.6c1.4,0.8,3.3,0.9,5.9,0.4c1.9-0.3,3.9-1.2,6.1-2.6c2.2-1.4,4.5-3,6.8-4.9
					c2.3-1.9,4.6-3.9,6.9-6.1c2.3-2.2,4.3-4.3,6.3-6.4c1.9-2,3.6-3.9,5-5.6c1.4-1.7,2.4-3,3-3.8c0.6-1,1-2,1.1-2.8
					c0.1-0.8,0-1.5-0.4-1.8c-0.4-0.4-1-0.4-1.9,0c-0.8,0.4-1.9,1.3-3.1,2.6c-1.7,2.1-3.8,4.5-6.3,7c-2.5,2.6-4.9,4.9-7.3,7.1
					c-2.4,2.2-4.6,4-6.6,5.4c-2,1.4-3.4,1.9-4.3,1.7c-0.6-0.2-0.8-0.8-0.6-2c0.2-1.1,1-3,2.6-5.6c0.8-1.2,2.1-3.2,4-6
					c1.9-2.8,4.1-6,6.7-9.6c2.6-3.6,5.3-7.4,8.2-11.4c2.9-4,5.7-7.8,8.3-11.5c5.9-0.3,11.8-0.5,17.7-0.8c5.9-0.3,11.4-0.5,16.5-0.8
					c1.4-0.1,2.7-0.1,3.9-0.2l6.2-9.1C312.5,286.2,311.4,286.2,310.2,286.2z M154.6,325.8c1.1-1.7,2.3-3.3,3.6-4.8
					c1.3-1.5,2.7-2.8,4.1-3.8c1.4-1.1,2.9-1.8,4.3-2.4c2.1-0.7,3.8-0.8,4.9-0.4c1.1,0.4,1.8,1.1,1.9,2.2c0.1,1-0.2,2.3-1,3.8
					c-0.8,1.5-2.1,2.9-3.9,4.3c-1.8,1.4-4.1,2.7-6.9,3.8c-2.8,1.2-6.1,1.9-10,2.4C152.5,329.2,153.5,327.5,154.6,325.8z"/>
			</g>
			<g>
				<path class="st2" d="M408,290.2c-1-1.1-2.5-2-4.4-2.9c-1.9-0.8-3.9-1.2-6.1-1.1c-1.2,0-3.1,0-5.7,0.1c-2.6,0-5.7,0.1-9.2,0.1
					c-3.5,0-7.4,0.1-11.6,0.1c-4.2,0-8.4,0.1-12.6,0.1c1.4-2,2.7-3.6,3.6-4.9c1-1.3,1.6-2.1,1.7-2.2c0.9-1.2,1.3-2.2,1.1-3
					c-0.2-0.8-0.9-1.2-2.1-1.2h-3.7c-1.2,0-2.5,0.4-4,1.2c-1.4,0.8-2.6,1.8-3.6,3l-5.5,7.4c-2.4,0-4.6,0.1-6.8,0.1l-7.7,10.9
					c2.1-0.1,4.3-0.2,6.6-0.3c-2.7,3.8-5.6,7.9-8.5,12.1c-3,4.2-5.8,8.2-8.4,11.9c-0.2,0.3-0.5,0.7-0.7,1c-1.6,2-3.5,4.2-5.8,6.5
					c-2.5,2.6-4.9,5-7.4,7.2c-2.5,2.2-4.7,4-6.8,5.4c-2,1.4-3.5,2-4.3,1.7c-0.7-0.2-0.9-0.8-0.8-2c0.2-1.1,1.1-3,2.8-5.6
					c0.6-1,1.7-2.7,3.3-5c1.6-2.3,3.4-5,5.5-8.1c2.1-3.1,4.5-6.5,7-10.1c2.6-3.7,5.1-7.3,7.7-11c0.8-1.2,1.7-2.3,2.5-3.5
					c0,0,0,0,0,0l7.9-11.1c0,0-0.1,0-0.1,0c1.3-1.9,2.6-3.6,3.7-5.2c1.9-2.7,3.5-4.9,4.7-6.6c1.2-1.7,1.9-2.6,2.1-2.8
					c0.9-1.2,1.3-2.2,1.1-3.1c-0.2-0.8-0.9-1.3-2-1.3h-13.4c-1.4,0-2.4,0.2-3.1,0.7c-0.7,0.5-1,1-0.8,1.5c0.1,0.5,0.7,1,1.6,1.5
					c0.9,0.5,2.4,0.7,4.3,0.7c-0.3,0.3-1,1.4-2.4,3.3c-1.3,1.8-3,4.2-5,7c-0.5,0.7-1,1.5-1.6,2.2l-13.1,18.7l0,0
					c-2.6,3.7-5.1,7.3-7.5,10.9c-2.6,3.7-4.9,7.1-7,10.1c-2.1,3.1-3.9,5.7-5.4,8c-1.5,2.3-2.5,3.8-3,4.7c-1.4,2.4-2.3,4.7-2.8,6.8
					c-0.5,2.2-0.6,4-0.2,5.6c0.4,1.6,1.3,2.7,2.6,3.5c1.4,0.8,3.3,0.9,5.7,0.4c1.9-0.3,3.9-1.2,6.2-2.6c2.3-1.4,4.5-3,6.9-4.9
					c1.6-1.3,3.1-2.6,4.6-4c-0.2,0.6-0.4,1.2-0.5,1.8c-0.5,2.2-0.6,4.1-0.2,5.7c0.4,1.6,1.3,2.8,2.6,3.6c1.4,0.8,3.3,0.9,5.9,0.4
					c1.9-0.3,3.9-1.2,6.1-2.6c2.2-1.4,4.5-3,6.8-4.9c2.3-1.9,4.6-3.9,6.9-6.1c2.3-2.2,4.3-4.3,6.3-6.4c1.9-2,3.6-3.9,5-5.6
					c1.4-1.7,2.4-3,3-3.8c0.6-1,1-2,1.1-2.8c0.1-0.8,0-1.5-0.4-1.8c-0.4-0.4-1-0.4-1.9,0c-0.8,0.4-1.9,1.3-3.1,2.6
					c-1.7,2.1-3.8,4.5-6.3,7c-2.5,2.6-4.9,4.9-7.3,7.1c-2.4,2.2-4.6,4-6.6,5.4c-2,1.4-3.4,1.9-4.3,1.7c-0.6-0.2-0.8-0.8-0.6-2
					c0.2-1.1,1-3,2.6-5.6c0.8-1.2,2.1-3.2,4-6c1.9-2.8,4.2-6,6.7-9.6c2.6-3.6,5.3-7.4,8.2-11.4c2.9-4,5.7-7.8,8.3-11.5
					c5.9-0.3,11.8-0.5,17.7-0.8c5.9-0.3,11.4-0.5,16.5-0.8c5.1-0.3,9.4-0.5,13.1-0.6c3.7-0.2,6.2-0.3,7.5-0.3c2.1,0,3.3-0.5,3.6-1.4
					C409.4,292.2,409.1,291.2,408,290.2z"/>
			</g>
		</g>
	</g>
</g>
</svg>
