<?xml version="1.0" encoding="utf-8"?>
<!-- Generator: Adobe Illustrator 26.3.1, SVG Export Plug-In . SVG Version: 6.00 Build 0)  -->
<svg version="1.1" id="Layer_1" xmlns="http://www.w3.org/2000/svg" xmlns:xlink="http://www.w3.org/1999/xlink" x="0px" y="0px"
	 viewBox="0 0 300 300" style="enable-background:new 0 0 300 300;" xml:space="preserve">
<style type="text/css">
	.st0{fill:url(#SVGID_1_);stroke:#DCDDDF;stroke-width:0.8218;}
	.st1{fill:url(#SVGID_00000110436825002440371750000010648690977337587354_);}
	.st2{fill:#FFFFFF;}
	.st3{fill:#231F20;}
	.st4{fill:#F0D256;}
</style>
<g>
	<g>
		<linearGradient id="SVGID_1_" gradientUnits="userSpaceOnUse" x1="53.7991" y1="16.361" x2="246.2005" y2="208.7624">
			<stop  offset="0" style="stop-color:#ECEBEC"/>
			<stop  offset="0.1035" style="stop-color:#E2E2E4"/>
			<stop  offset="0.2303" style="stop-color:#D0D1D5"/>
			<stop  offset="0.497" style="stop-color:#E5E3E1"/>
			<stop  offset="0.5154" style="stop-color:#D6D5D5"/>
			<stop  offset="0.5507" style="stop-color:#AFB1B5"/>
			<stop  offset="0.5697" style="stop-color:#989BA2"/>
			<stop  offset="0.5987" style="stop-color:#9B9DA4"/>
			<stop  offset="0.6161" style="stop-color:#A3A5AA"/>
			<stop  offset="0.6242" style="stop-color:#AAACB0"/>
			<stop  offset="0.6546" style="stop-color:#A0A3A8"/>
			<stop  offset="0.6727" style="stop-color:#989BA2"/>
			<stop  offset="0.7022" style="stop-color:#9B9DA4"/>
			<stop  offset="0.7198" style="stop-color:#A3A6AB"/>
			<stop  offset="0.7344" style="stop-color:#B1B4B7"/>
			<stop  offset="0.7455" style="stop-color:#C2C4C5"/>
			<stop  offset="0.7572" style="stop-color:#B3B5B6"/>
			<stop  offset="0.7796" style="stop-color:#8C8E91"/>
			<stop  offset="0.8" style="stop-color:#646669"/>
			<stop  offset="0.8265" style="stop-color:#6C6F73"/>
			<stop  offset="0.8667" style="stop-color:#80848A"/>
			<stop  offset="0.8964" style="stop-color:#7D8187"/>
			<stop  offset="0.9188" style="stop-color:#74787D"/>
			<stop  offset="0.9388" style="stop-color:#65686D"/>
			<stop  offset="0.9573" style="stop-color:#505356"/>
			<stop  offset="0.9749" style="stop-color:#353639"/>
			<stop  offset="0.9916" style="stop-color:#141415"/>
			<stop  offset="1" style="stop-color:#000000"/>
		</linearGradient>
		<path class="st0" d="M265.6,35.8c0,0,21.5,178.3-115.6,259.2C12.9,214.1,34.4,35.8,34.4,35.8S145.7-33.5,265.6,35.8z"/>
		
			<linearGradient id="SVGID_00000171699528496865613930000002277546550863002772_" gradientUnits="userSpaceOnUse" x1="56.6866" y1="20.3697" x2="243.3138" y2="206.9969">
			<stop  offset="0" style="stop-color:#FFFFFF"/>
			<stop  offset="7.366121e-02" style="stop-color:#F5F6F6"/>
			<stop  offset="0.1939" style="stop-color:#DCDDDF"/>
			<stop  offset="0.3455" style="stop-color:#ECEBEC"/>
			<stop  offset="0.3752" style="stop-color:#DDDDDF"/>
			<stop  offset="0.432" style="stop-color:#B6B8BB"/>
			<stop  offset="0.4485" style="stop-color:#AAACB0"/>
			<stop  offset="0.4831" style="stop-color:#B9BBBE"/>
			<stop  offset="0.5497" style="stop-color:#E1E2E3"/>
			<stop  offset="0.5939" style="stop-color:#FFFFFF"/>
			<stop  offset="0.6084" style="stop-color:#F5F5F6"/>
			<stop  offset="0.6328" style="stop-color:#DBDCDC"/>
			<stop  offset="0.664" style="stop-color:#B0B2B3"/>
			<stop  offset="0.697" style="stop-color:#7C7E81"/>
			<stop  offset="0.7229" style="stop-color:#86888A"/>
			<stop  offset="0.7665" style="stop-color:#A0A2A4"/>
			<stop  offset="0.8121" style="stop-color:#C2C4C5"/>
			<stop  offset="0.8674" style="stop-color:#9B9D9E"/>
			<stop  offset="0.9907" style="stop-color:#383A3C"/>
			<stop  offset="1" style="stop-color:#303234"/>
		</linearGradient>
		<path style="fill:url(#SVGID_00000171699528496865613930000002277546550863002772_);" d="M262.1,39.2c0,0,20.9,172.9-112.1,251.4
			C17,212.1,37.9,39.2,37.9,39.2S145.8-28,262.1,39.2z"/>
		<path class="st2" d="M248.7,52.5c0,0,18.4,152.2-98.7,221.3C32.9,204.7,51.3,52.5,51.3,52.5S146.3-6.6,248.7,52.5z"/>
		<path class="st3" d="M245.7,55.4c0,0,17.8,147.6-95.7,214.6C36.5,203,54.3,55.4,54.3,55.4S146.4-2,245.7,55.4z"/>
	</g>
	<g>
		<path class="st4" d="M133.5,111.8c1.8-0.1,3.6-0.2,5.4-0.2c10.8,0,20.4,2.1,26.4,5.4c4.3,2.3,6.8,5.3,6.8,8.4c0,0.5-0.1,1.4-0.4,2
			c-0.8,2.3-3.1,4.4-6.1,6.2c0,0-0.1,0-0.1,0c-0.1,0-0.1,0.1-0.2,0.1c-6.1,3.4-15.7,5.5-26.6,5.5c-10.3,0-19.6-2-25.7-5
			c-0.3-0.2-0.6-0.5-0.9-0.5c-4.2-2.3-6.7-5.2-6.7-8.3c0-6,9.3-11.2,22.2-13.1C129.6,112.2,131.5,112,133.5,111.8z M172.2,142.2
			c0,3.1-2.5,6-6.7,8.3c-0.3,0-0.6,0.3-0.9,0.5c-6.1,3.1-15.4,5-25.7,5c-10.9,0-20.6-2.2-26.6-5.5c-4.2-2.3-6.7-5.2-6.7-8.3V136
			c2.2,1.8,4.8,3.2,7.6,4.4c6.9,2.9,15.9,4.5,25.7,4.5c9.7,0,18.8-1.6,25.7-4.5c1.4-0.6,2.7-1.2,3.9-1.9c1.1-0.6,2-1.2,3-1.9
			c0.3-0.2,0.5-0.4,0.7-0.6V142.2z M138.9,161.6c9.7,0,18.8-1.6,25.7-4.5c2.8-1.2,5.4-2.6,7.6-4.4v6.1c0,7.7-14.9,13.9-33.3,13.9
			c-18.4,0-33.3-6.2-33.3-13.9v-6.1c2.2,1.8,4.8,3.2,7.6,4.4C120.1,160,129.2,161.6,138.9,161.6z M194.4,97.8c0,3.1-2.5,6-6.7,8.3
			c-5,2.8-12.6,4.8-21.2,5.4c-0.6-0.3-1.3-0.6-1.9-0.9c-6.8-2.9-15.9-4.5-25.7-4.5c-1.4,0-2.8,0-4.2,0.1l-0.2-0.1
			c-4.2-2.3-6.7-5.2-6.7-8.3c0-7.7,14.8-13.9,33.3-13.9C179.5,83.9,194.4,90.1,194.4,97.8z M173.6,116.3c4.9-0.8,9.4-2,13.2-3.6
			c2.8-1.2,5.4-2.6,7.6-4.4v6.1c0,3.3-2.9,6.4-7.6,8.8c-2.5,1.3-5.6,2.4-9.1,3.2c0-0.3,0-0.6,0-0.9
			C177.7,121.7,175.9,118.6,173.6,116.3z M177.7,132.1c3.1-0.9,6.3-1.6,9-2.8c2.8-1.2,5.4-2.6,7.6-4.4v6.1c0,1.8-0.9,3.6-2.6,5.4
			c-2.8,2.8-7.8,5.1-14.1,6.7c0-0.3,0-0.6,0-0.9V132.1z"/>
	</g>
</g>
</svg>
