<?xml version="1.0" encoding="utf-8"?>
<!-- Generator: Adobe Illustrator 26.3.1, SVG Export Plug-In . SVG Version: 6.00 Build 0)  -->
<svg version="1.1" id="Layer_1" xmlns="http://www.w3.org/2000/svg" xmlns:xlink="http://www.w3.org/1999/xlink" x="0px" y="0px"
	 viewBox="0 0 300 300" style="enable-background:new 0 0 300 300;" xml:space="preserve">
<style type="text/css">
	.st0{fill:url(#SVGID_1_);stroke:#DCDDDF;stroke-width:0.8218;}
	.st1{fill:url(#SVGID_00000118367266252031227870000006016317573691127976_);}
	.st2{fill:#FFFFFF;}
	.st3{fill:#231F20;}
	.st4{fill:#F0D256;}
</style>
<g>
	<g>
		<linearGradient id="SVGID_1_" gradientUnits="userSpaceOnUse" x1="53.7991" y1="16.361" x2="246.2005" y2="208.7624">
			<stop  offset="0" style="stop-color:#ECEBEC"/>
			<stop  offset="0.1035" style="stop-color:#E2E2E4"/>
			<stop  offset="0.2303" style="stop-color:#D0D1D5"/>
			<stop  offset="0.497" style="stop-color:#E5E3E1"/>
			<stop  offset="0.5154" style="stop-color:#D6D5D5"/>
			<stop  offset="0.5507" style="stop-color:#AFB1B5"/>
			<stop  offset="0.5697" style="stop-color:#989BA2"/>
			<stop  offset="0.5987" style="stop-color:#9B9DA4"/>
			<stop  offset="0.6161" style="stop-color:#A3A5AA"/>
			<stop  offset="0.6242" style="stop-color:#AAACB0"/>
			<stop  offset="0.6546" style="stop-color:#A0A3A8"/>
			<stop  offset="0.6727" style="stop-color:#989BA2"/>
			<stop  offset="0.7022" style="stop-color:#9B9DA4"/>
			<stop  offset="0.7198" style="stop-color:#A3A6AB"/>
			<stop  offset="0.7344" style="stop-color:#B1B4B7"/>
			<stop  offset="0.7455" style="stop-color:#C2C4C5"/>
			<stop  offset="0.7572" style="stop-color:#B3B5B6"/>
			<stop  offset="0.7796" style="stop-color:#8C8E91"/>
			<stop  offset="0.8" style="stop-color:#646669"/>
			<stop  offset="0.8265" style="stop-color:#6C6F73"/>
			<stop  offset="0.8667" style="stop-color:#80848A"/>
			<stop  offset="0.8964" style="stop-color:#7D8187"/>
			<stop  offset="0.9188" style="stop-color:#74787D"/>
			<stop  offset="0.9388" style="stop-color:#65686D"/>
			<stop  offset="0.9573" style="stop-color:#505356"/>
			<stop  offset="0.9749" style="stop-color:#353639"/>
			<stop  offset="0.9916" style="stop-color:#141415"/>
			<stop  offset="1" style="stop-color:#000000"/>
		</linearGradient>
		<path class="st0" d="M265.6,35.8c0,0,21.5,178.3-115.6,259.2C12.9,214.1,34.4,35.8,34.4,35.8S145.7-33.5,265.6,35.8z"/>
		
			<linearGradient id="SVGID_00000096775526674195847970000004487728582396959907_" gradientUnits="userSpaceOnUse" x1="56.6866" y1="20.3697" x2="243.3138" y2="206.9969">
			<stop  offset="0" style="stop-color:#FFFFFF"/>
			<stop  offset="7.366121e-02" style="stop-color:#F5F6F6"/>
			<stop  offset="0.1939" style="stop-color:#DCDDDF"/>
			<stop  offset="0.3455" style="stop-color:#ECEBEC"/>
			<stop  offset="0.3752" style="stop-color:#DDDDDF"/>
			<stop  offset="0.432" style="stop-color:#B6B8BB"/>
			<stop  offset="0.4485" style="stop-color:#AAACB0"/>
			<stop  offset="0.4831" style="stop-color:#B9BBBE"/>
			<stop  offset="0.5497" style="stop-color:#E1E2E3"/>
			<stop  offset="0.5939" style="stop-color:#FFFFFF"/>
			<stop  offset="0.6084" style="stop-color:#F5F5F6"/>
			<stop  offset="0.6328" style="stop-color:#DBDCDC"/>
			<stop  offset="0.664" style="stop-color:#B0B2B3"/>
			<stop  offset="0.697" style="stop-color:#7C7E81"/>
			<stop  offset="0.7229" style="stop-color:#86888A"/>
			<stop  offset="0.7665" style="stop-color:#A0A2A4"/>
			<stop  offset="0.8121" style="stop-color:#C2C4C5"/>
			<stop  offset="0.8674" style="stop-color:#9B9D9E"/>
			<stop  offset="0.9907" style="stop-color:#383A3C"/>
			<stop  offset="1" style="stop-color:#303234"/>
		</linearGradient>
		<path style="fill:url(#SVGID_00000096775526674195847970000004487728582396959907_);" d="M262.1,39.2c0,0,20.9,172.9-112.1,251.4
			C17,212.1,37.9,39.2,37.9,39.2S145.8-28,262.1,39.2z"/>
		<path class="st2" d="M248.7,52.5c0,0,18.4,152.2-98.7,221.3C32.9,204.7,51.3,52.5,51.3,52.5S146.3-6.6,248.7,52.5z"/>
		<path class="st3" d="M245.7,55.4c0,0,17.8,147.6-95.7,214.6C36.5,203,54.3,55.4,54.3,55.4S146.4-2,245.7,55.4z"/>
	</g>
	<g>
		<path class="st4" d="M105.6,128.3c0-24.5,19.9-44.4,44.4-44.4s44.4,19.9,44.4,44.4s-19.9,44.4-44.4,44.4S105.6,152.8,105.6,128.3z
			 M170.1,120.6c1.9-1.9,1.9-5,0-6.9s-5-1.9-6.9,0l-18.8,18.8l-7.7-7.7c-1.9-1.9-5-1.9-6.9,0c-1.9,1.9-1.9,5,0,6.9l11.1,11.1
			c1.9,1.9,5,1.9,6.9,0L170.1,120.6z"/>
	</g>
</g>
</svg>
