<?xml version="1.0" encoding="utf-8"?>
<!-- Generator: Adobe Illustrator 26.3.1, SVG Export Plug-In . SVG Version: 6.00 Build 0)  -->
<svg version="1.1" id="Layer_1" xmlns="http://www.w3.org/2000/svg" xmlns:xlink="http://www.w3.org/1999/xlink" x="0px" y="0px"
	 viewBox="0 0 300 300" style="enable-background:new 0 0 300 300;" xml:space="preserve">
<style type="text/css">
	.st0{fill:url(#SVGID_1_);stroke:#DCDDDF;stroke-width:0.8218;}
	.st1{fill:url(#SVGID_00000046338029372902012510000012209844801370463158_);}
	.st2{fill:#FFFFFF;}
	.st3{fill:#231F20;}
	.st4{fill:#F0D256;}
</style>
<g>
	<g>
		<linearGradient id="SVGID_1_" gradientUnits="userSpaceOnUse" x1="53.7991" y1="16.361" x2="246.2005" y2="208.7624">
			<stop  offset="0" style="stop-color:#ECEBEC"/>
			<stop  offset="0.1035" style="stop-color:#E2E2E4"/>
			<stop  offset="0.2303" style="stop-color:#D0D1D5"/>
			<stop  offset="0.497" style="stop-color:#E5E3E1"/>
			<stop  offset="0.5154" style="stop-color:#D6D5D5"/>
			<stop  offset="0.5507" style="stop-color:#AFB1B5"/>
			<stop  offset="0.5697" style="stop-color:#989BA2"/>
			<stop  offset="0.5987" style="stop-color:#9B9DA4"/>
			<stop  offset="0.6161" style="stop-color:#A3A5AA"/>
			<stop  offset="0.6242" style="stop-color:#AAACB0"/>
			<stop  offset="0.6546" style="stop-color:#A0A3A8"/>
			<stop  offset="0.6727" style="stop-color:#989BA2"/>
			<stop  offset="0.7022" style="stop-color:#9B9DA4"/>
			<stop  offset="0.7198" style="stop-color:#A3A6AB"/>
			<stop  offset="0.7344" style="stop-color:#B1B4B7"/>
			<stop  offset="0.7455" style="stop-color:#C2C4C5"/>
			<stop  offset="0.7572" style="stop-color:#B3B5B6"/>
			<stop  offset="0.7796" style="stop-color:#8C8E91"/>
			<stop  offset="0.8" style="stop-color:#646669"/>
			<stop  offset="0.8265" style="stop-color:#6C6F73"/>
			<stop  offset="0.8667" style="stop-color:#80848A"/>
			<stop  offset="0.8964" style="stop-color:#7D8187"/>
			<stop  offset="0.9188" style="stop-color:#74787D"/>
			<stop  offset="0.9388" style="stop-color:#65686D"/>
			<stop  offset="0.9573" style="stop-color:#505356"/>
			<stop  offset="0.9749" style="stop-color:#353639"/>
			<stop  offset="0.9916" style="stop-color:#141415"/>
			<stop  offset="1" style="stop-color:#000000"/>
		</linearGradient>
		<path class="st0" d="M265.6,35.8c0,0,21.5,178.3-115.6,259.2C12.9,214.1,34.4,35.8,34.4,35.8S145.7-33.5,265.6,35.8z"/>
		
			<linearGradient id="SVGID_00000117661453073968103100000018393528117298524058_" gradientUnits="userSpaceOnUse" x1="56.6866" y1="20.3697" x2="243.3138" y2="206.9969">
			<stop  offset="0" style="stop-color:#FFFFFF"/>
			<stop  offset="7.366121e-02" style="stop-color:#F5F6F6"/>
			<stop  offset="0.1939" style="stop-color:#DCDDDF"/>
			<stop  offset="0.3455" style="stop-color:#ECEBEC"/>
			<stop  offset="0.3752" style="stop-color:#DDDDDF"/>
			<stop  offset="0.432" style="stop-color:#B6B8BB"/>
			<stop  offset="0.4485" style="stop-color:#AAACB0"/>
			<stop  offset="0.4831" style="stop-color:#B9BBBE"/>
			<stop  offset="0.5497" style="stop-color:#E1E2E3"/>
			<stop  offset="0.5939" style="stop-color:#FFFFFF"/>
			<stop  offset="0.6084" style="stop-color:#F5F5F6"/>
			<stop  offset="0.6328" style="stop-color:#DBDCDC"/>
			<stop  offset="0.664" style="stop-color:#B0B2B3"/>
			<stop  offset="0.697" style="stop-color:#7C7E81"/>
			<stop  offset="0.7229" style="stop-color:#86888A"/>
			<stop  offset="0.7665" style="stop-color:#A0A2A4"/>
			<stop  offset="0.8121" style="stop-color:#C2C4C5"/>
			<stop  offset="0.8674" style="stop-color:#9B9D9E"/>
			<stop  offset="0.9907" style="stop-color:#383A3C"/>
			<stop  offset="1" style="stop-color:#303234"/>
		</linearGradient>
		<path style="fill:url(#SVGID_00000117661453073968103100000018393528117298524058_);" d="M262.1,39.2c0,0,20.9,172.9-112.1,251.4
			C17,212.1,37.9,39.2,37.9,39.2S145.8-28,262.1,39.2z"/>
		<path class="st2" d="M248.7,52.5c0,0,18.4,152.2-98.7,221.3C32.9,204.7,51.3,52.5,51.3,52.5S146.3-6.6,248.7,52.5z"/>
		<path class="st3" d="M245.7,55.4c0,0,17.8,147.6-95.7,214.6C36.5,203,54.3,55.4,54.3,55.4S146.4-2,245.7,55.4z"/>
	</g>
	<g>
		<path class="st4" d="M196.8,151.9l-23.4,17.3c-3.1,2.3-6.9,3.5-10.7,3.5h-60c-1.4,0-2.6-1.2-2.6-2.8v-16.6c0-1.5,1.3-2.9,2.6-2.9
			l9.6,0.2l8.1-6.5c3.6-2.9,8.3-4.6,12.9-4.6h27.9c3.4,0,6,3,5.5,6.5c-0.5,2.7-3.2,4.6-5.8,4.6h-13.6c-1.4,0-2.6,1.3-2.6,2.8
			c0,1.5,1.1,2.8,2.6,2.8h20.9l20.8-15.3c3.1-2.3,7.4-1.6,9.7,1.5C200.9,145.3,200.2,149.6,196.8,151.9z M154.1,113
			c0.1-0.8,0.2-1.3-5.3-2.9l-1.1-0.3c-3.2-0.9-11.5-3.4-10.2-12c0.9-4.1,3.9-6.9,8.3-7.9v-1.8c0-2.3,1.9-4.2,4.2-4.2
			c2.3,0,4.2,1.9,4.2,4.2v2c1,0.2,2.1,0.5,3.4,1c2.2,0.8,3.3,3.1,2.6,5.3c-0.7,2.2-3.1,3.3-5.3,2.6c-1.4-0.5-2.6-0.8-3.4-0.9
			c-2.9-0.5-5.4,0.1-5.6,1.3c-0.1,0.7-0.4,1.3,4.2,2.6l0.9,0.3c4.4,1.3,12.7,3.6,11.2,12.3c-0.6,4.1-3.6,6.9-8,7.9v1.8
			c0,2.3-1.9,4.2-4.2,4.2c-2.3,0-4.2-1.9-4.2-4.2V122c-1.6-0.4-3.3-0.9-4.7-1.4l-0.8-0.3c-2.2-0.8-3.3-3.3-2.5-5.3
			c0.8-2,3.1-3.3,5.3-2.4l0.8,0.3c1.5,0.6,3.3,1.2,4.6,1.4C151.5,114.7,153.9,114.2,154.1,113z"/>
	</g>
</g>
</svg>
